<svg version="1.1" id="Layer_1" xmlns="http://www.w3.org/2000/svg" xmlns:xlink="http://www.w3.org/1999/xlink" x="0px" y="0px"
	 width="100%" viewBox="0 0 1600 1586" enable-background="new 0 0 1600 1586" xml:space="preserve">
<path fill="none" opacity="1.000000" stroke="#000000" stroke-linecap="round" stroke-linejoin="round" stroke-width="18.000000"
	d="
M1156.500000,1194.000000 
	C1151.202515,1196.236938 1146.630737,1199.431763 1142.447144,1203.444824 
	C1133.144043,1212.368530 1121.969238,1217.156372 1109.005737,1218.081177 
	C1101.658691,1218.605469 1094.332520,1218.473267 1087.000000,1218.474609 
	C909.000000,1218.507080 731.000000,1218.500000 553.000000,1218.500000 
	C536.000000,1218.500000 518.994873,1218.238403 502.001404,1218.572144 
	C484.326782,1218.919189 469.056549,1213.581421 456.522278,1200.977783 
	C454.285156,1198.728271 451.831604,1196.650513 448.958588,1195.614868 
	C445.367676,1194.320190 444.195374,1192.082642 443.374756,1188.528931 
	C441.275085,1179.436401 440.346497,1170.304932 440.471680,1160.999634 
	C440.599487,1151.501343 440.415894,1141.998901 440.537842,1132.500488 
	C440.593353,1128.178101 439.807190,1124.131836 437.459656,1120.526245 
	C436.137573,1118.495605 436.364594,1116.655273 436.957275,1114.488281 
	C439.595093,1104.844849 440.567291,1095.026245 440.559326,1085.000000 
	C440.466583,968.500000 440.255890,851.998718 440.867859,735.501953 
	C440.930847,723.508057 437.705231,712.513794 436.351379,701.017517 
	C434.831116,688.108093 432.134613,675.338623 430.008850,662.498535 
	C427.802490,649.171814 425.687225,635.829956 423.494141,622.500977 
	C421.354431,609.496521 419.187775,596.496460 416.994019,583.501038 
	C414.854950,570.829651 412.640808,558.171021 410.510895,545.498169 
	C409.448273,539.175415 408.482269,532.835999 407.526733,526.495972 
	C407.428314,525.842834 407.590088,525.198792 407.936737,524.469910 
	C411.719391,516.516296 407.587189,509.437378 405.638489,501.963898 
	C403.522858,493.850403 402.604187,485.394989 402.568298,476.999695 
	C402.410126,440.000397 402.443512,402.999847 402.540375,366.000092 
	C402.564117,356.939209 404.224548,348.228729 408.413879,339.956390 
	C412.894135,331.109619 409.660950,326.511444 399.500000,326.507355 
	C356.666656,326.489990 313.833313,326.466675 271.000000,326.511658 
	C242.036804,326.542053 217.977829,345.985870 213.026962,376.504364 
	C212.816208,377.803528 213.000000,379.166656 213.000000,380.500000 
	C213.000000,616.666687 213.003632,852.833313 212.985794,1089.000000 
	C212.985123,1097.838867 214.731354,1106.419678 216.579742,1114.982788 
	C216.824142,1116.115112 216.847229,1117.659058 218.976303,1118.111572 
	C223.404739,1119.052612 226.464386,1122.348633 229.500534,1125.499512 
	C240.835617,1137.262817 254.867126,1142.482056 271.000000,1142.492798 
	C306.166656,1142.516113 341.339752,1142.097778 376.497498,1142.657593 
	C396.177002,1142.970947 413.035339,1137.817627 426.562775,1123.057495 
	C428.871307,1120.538696 432.366180,1119.425781 435.500000,1118.000000 
"/>
<path fill="none" opacity="1.000000" stroke="#000000" stroke-linecap="round" stroke-linejoin="round" stroke-width="18.000000"
	d="
M1166.500000,1118.000000 
	C1172.980957,1119.814575 1177.156006,1124.948486 1181.942383,1129.066895 
	C1192.659180,1138.287964 1205.069092,1142.465210 1219.000000,1142.483276 
	C1256.666626,1142.532227 1294.333740,1142.596802 1331.999878,1142.453125 
	C1347.461914,1142.394043 1361.055664,1137.293823 1372.001221,1126.001099 
	C1375.202759,1122.697998 1378.350342,1119.146973 1383.022583,1118.100830 
	C1385.415405,1117.564819 1385.117065,1115.821899 1385.442871,1114.486084 
	C1387.683716,1105.299927 1389.045898,1096.022339 1389.043579,1086.500000 
	C1388.987915,851.666687 1389.078979,616.833252 1388.874512,382.000122 
	C1388.854614,359.223694 1377.103760,343.000397 1357.036133,332.431396 
	C1347.829956,327.582764 1337.991699,326.593170 1327.999756,326.559479 
	C1286.166870,326.418457 1244.333374,326.494232 1202.500000,326.521088 
	C1200.833252,326.522156 1198.850830,326.307648 1197.552612,327.087616 
	C1190.553955,331.292633 1185.612915,327.230499 1181.060425,322.935974 
	C1174.807861,317.037781 1167.574097,313.247009 1159.539429,310.389313 
	C1152.633789,307.933258 1145.552002,307.583405 1138.500000,307.580353 
	C913.500000,307.482605 688.500000,307.498901 463.500000,307.502289 
	C446.650726,307.502533 431.507751,311.848938 419.447113,324.449402 
	C417.025085,326.979858 413.808990,328.672302 410.500000,330.000000 
"/>
<path fill="none" opacity="1.000000" stroke="#000000" stroke-linecap="round" stroke-linejoin="round" stroke-width="18.000000"
	d="
M1191.000000,516.000000 
	C1186.518677,516.478333 1182.853271,518.462219 1179.460083,521.454773 
	C1169.789062,529.984070 1158.479492,534.761047 1145.499634,534.979980 
	C1075.002686,536.169006 1004.499695,535.250427 933.999817,535.342407 
	C929.334656,535.348511 924.666687,535.510620 920.000000,535.510193 
	C768.000000,535.497864 616.000000,535.492310 464.000000,535.511047 
	C447.773834,535.513062 433.042236,531.647034 420.943420,520.059082 
	C418.310730,517.537537 414.761353,516.263245 411.000000,516.000000 
"/>
<path fill="none" opacity="1.000000" stroke="#000000" stroke-linecap="round" stroke-linejoin="round" stroke-width="18.000000"
	d="
M444.500000,1194.500000 
	C441.685669,1199.105103 440.368073,1204.018311 440.437103,1209.500732 
	C440.621735,1224.165039 440.522156,1238.833496 440.477936,1253.499878 
	C440.470642,1255.915894 440.487152,1257.903809 442.912842,1259.623047 
	C445.155365,1261.212280 447.032959,1263.619873 448.440521,1266.034668 
	C457.599487,1281.746948 471.549805,1290.501953 489.021759,1293.887695 
	C493.711273,1294.796509 498.666626,1294.478394 503.500000,1294.479004 
	C702.500000,1294.503418 901.500000,1294.464355 1100.500000,1294.549683 
	C1122.822510,1294.559326 1140.401001,1286.021973 1152.993530,1267.495605 
	C1155.004150,1264.537720 1156.769043,1261.331421 1160.020874,1259.537842 
	C1161.841675,1258.533325 1161.491333,1256.999146 1161.492432,1255.500000 
	C1161.504517,1239.166626 1161.483276,1222.833374 1161.512329,1206.500000 
	C1161.519043,1202.688354 1160.340454,1199.108032 1158.344116,1196.103516 
	C1157.212036,1194.399536 1157.126221,1192.885986 1157.577026,1191.525513 
	C1161.305664,1180.273926 1161.722534,1168.689209 1161.523804,1156.999634 
	C1161.396484,1149.501709 1161.644165,1141.996338 1161.451416,1134.501221 
	C1161.313232,1129.132080 1161.897095,1123.975952 1165.072144,1119.551758 
	C1166.373657,1117.738525 1165.466553,1116.571411 1165.044922,1114.988037 
	C1162.822632,1106.645264 1161.491089,1098.168701 1161.491943,1089.500000 
	C1161.503906,971.500000 1161.741211,853.498779 1161.132446,735.501892 
	C1161.070557,723.508240 1164.294800,712.513855 1165.648560,701.017517 
	C1167.168823,688.108093 1169.865356,675.338623 1171.991089,662.498535 
	C1174.197510,649.171814 1176.312866,635.829956 1178.505859,622.500977 
	C1180.645508,609.496521 1182.812134,596.496399 1185.005981,583.501038 
	C1187.145142,570.829712 1189.359253,558.171021 1191.489258,545.498169 
	C1192.551880,539.175415 1193.517578,532.835999 1194.473145,526.495972 
	C1194.571655,525.842834 1194.409912,525.198792 1194.063232,524.469910 
	C1190.280518,516.516357 1194.412842,509.437408 1196.361572,501.963898 
	C1198.477295,493.850403 1199.395752,485.394989 1199.431641,476.999695 
	C1199.589722,440.000397 1199.488647,403.000000 1199.508301,366.000000 
	C1199.512939,357.321045 1197.928101,348.888824 1194.342529,341.072235 
	C1192.666626,337.418701 1191.960815,333.813721 1191.500000,330.000000 
"/>
<path fill="none" opacity="1.000000" stroke="#000000" stroke-linecap="round" stroke-linejoin="round" stroke-width="17.000000"
	d="
M1159.500000,726.000000 
	C1156.401489,725.019409 1153.205322,724.995728 1150.000000,724.995789 
	C917.333313,725.000427 684.666687,725.000427 452.000000,724.995789 
	C448.794678,724.995728 445.598541,725.019409 442.500000,726.000000 
"/>
<path fill="none" opacity="1.000000" stroke="#000000" stroke-linecap="round" stroke-linejoin="round" stroke-width="17.000000"
	d="
M217.000000,1118.000000 
	C213.807220,1122.686768 212.912857,1127.860474 212.933777,1133.500244 
	C213.064835,1168.833130 212.751465,1204.169067 213.102982,1239.499023 
	C213.283600,1257.652710 221.554153,1271.963135 235.950287,1283.064453 
	C247.586166,1292.037109 260.891998,1294.476562 275.000000,1294.489502 
	C309.666626,1294.521362 344.333374,1294.531494 378.999969,1294.484009 
	C392.293610,1294.465698 404.975067,1292.193604 416.014526,1284.019653 
	C422.579529,1279.158325 428.213623,1273.461060 432.478699,1266.486938 
	C434.568359,1263.069946 436.653961,1259.723389 440.500000,1258.000000 
"/>
<path fill="none" opacity="1.000000" stroke="#000000" stroke-linecap="round" stroke-linejoin="round" stroke-width="17.000000"
	d="
M1385.000000,1118.000000 
	C1388.192749,1122.686768 1389.088013,1127.860352 1389.066284,1133.500244 
	C1388.933350,1167.833130 1388.945923,1202.166748 1389.019165,1236.500000 
	C1389.067139,1258.970581 1379.066772,1275.524902 1360.015259,1287.025146 
	C1350.111206,1293.003784 1339.204712,1294.447144 1327.999878,1294.471558 
	C1292.666748,1294.548584 1257.333130,1294.421753 1222.000122,1294.528564 
	C1199.878784,1294.595459 1182.463989,1285.859375 1170.013184,1267.490967 
	C1167.657349,1264.015381 1165.415527,1260.477905 1161.500000,1258.500000 
"/>
</svg>